HIERARCHY
ROOT hip
{
	OFFSET 0.000000 0.000000 0.000000 
	CHANNELS 6 Xposition Yposition Zposition Zrotation Xrotation Yrotation
	JOINT abdomen
	{
		OFFSET 0.000000 3.402643 0.000000 
		CHANNELS 3 Zrotation Xrotation Yrotation
		JOINT chest
		{
			OFFSET 0.000000 8.438565 -0.680529 
			CHANNELS 3 Zrotation Xrotation Yrotation
			JOINT neck
			{
				OFFSET 0.000000 10.207942 -0.272212 
				CHANNELS 3 Zrotation Xrotation Yrotation
				JOINT head
				{
					OFFSET 0.000000 3.130431 0.000000 
					CHANNELS 3 Zrotation Xrotation Yrotation
					End Site
					{
						OFFSET 0.000000 3.130435 0.000000 
					}
				}
			}
			JOINT lCollar
			{
				OFFSET 3.470700 6.669187 -0.816635 
				CHANNELS 3 Zrotation Xrotation Yrotation
				JOINT lShldr
				{
					OFFSET 3.198488 0.000000 0.000000 
					CHANNELS 3 Zrotation Xrotation Yrotation
					JOINT lForeArm
					{
						OFFSET 10.139888 0.000000 0.000000 
						CHANNELS 3 Zrotation Xrotation Yrotation
						JOINT lHand
						{
							OFFSET 8.370511 0.000000 0.000000 
							CHANNELS 3 Zrotation Xrotation Yrotation
							End Site
							{
								OFFSET 4.083176 0.000000 0.000000 
							}
						}
					}
				}
			}
			JOINT rCollar
			{
				OFFSET -3.470700 6.669187 -0.816635 
				CHANNELS 3 Zrotation Xrotation Yrotation
				JOINT rShldr
				{
					OFFSET -3.198488 0.000000 0.000000 
					CHANNELS 3 Zrotation Xrotation Yrotation
					JOINT rForeArm
					{
						OFFSET -10.139888 0.000000 0.000000 
						CHANNELS 3 Zrotation Xrotation Yrotation
						JOINT rHand
						{
							OFFSET -8.370511 0.000000 0.000000 
							CHANNELS 3 Zrotation Xrotation Yrotation
							End Site
							{
								OFFSET -4.083176 0.000000 0.000000 
							}
						}
					}
				}
			}
		}
	}
	JOINT lThigh
	{
		OFFSET 5.308129 -1.633274 1.361059 
		CHANNELS 3 Zrotation Xrotation Yrotation
		JOINT lShin
		{
			OFFSET -2.041588 -20.007561 0.000000 
			CHANNELS 3 Zrotation Xrotation Yrotation
			JOINT lFoot
			{
				OFFSET 0.000000 -19.190928 -1.224953 
				CHANNELS 3 Zrotation Xrotation Yrotation
				End Site
				{
					OFFSET 0.000000 -2.449906 4.627600 
				}
			}
		}
	}
	JOINT rThigh
	{
		OFFSET -5.308129 -1.633274 1.361059 
		CHANNELS 3 Zrotation Xrotation Yrotation
		JOINT rShin
		{
			OFFSET 2.041588 -20.007561 0.000000 
			CHANNELS 3 Zrotation Xrotation Yrotation
			JOINT rFoot
			{
				OFFSET 0.000000 -19.190928 -1.224953 
				CHANNELS 3 Zrotation Xrotation Yrotation
				End Site
				{
					OFFSET 0.000000 -2.449906 4.627600 
				}
			}
		}
	}
}
MOTION
Frames: 9
Frame Time: 0.033333
0.019959 28.713879 -16.492264 -0.391818 -4.472576 -0.811805 0.128646 24.365181 6.294581 -7.878982 -14.486964 -11.066060 8.417971 -0.000005 29.218746 0.462913 7.470461 -13.663702 2.584211 -0.835536 -6.917036 -59.898415 14.226126 -12.881989 -8.788263 -14.099078 -58.988380 35.427517 28.870892 -36.799404 11.748240 -8.274871 -6.183342 57.687168 17.400291 0.941528 11.470218 -1.209353 69.268097 -36.605846 42.115231 43.327736 0.734637 -72.195587 -1.390143 169.305801 67.730972 -179.230453 -0.450240 -35.016602 5.752355 -14.093172 -76.323257 -15.290662 170.990646 74.279922 -162.254578 -7.860856 -23.176863 1.629012 
-0.031460 28.858742 -16.827469 -0.400650 -2.060520 -0.160959 -0.741173 22.732668 0.071466 -7.256874 -13.973664 -10.618656 8.662108 -0.000003 29.550779 0.217255 8.544861 -12.952195 2.199908 -0.485071 -2.185930 -60.628418 15.891534 -5.676604 -2.784089 -10.411269 -63.701328 48.857441 31.807549 -40.940510 10.826352 -8.129721 -4.090734 61.251503 17.140358 6.234978 8.641615 7.677382 64.073990 -40.819073 46.880440 36.147125 -1.636926 -75.846542 -2.859920 165.111374 67.860260 -175.288879 -1.075971 -33.298923 6.130647 -10.621878 -76.093887 -16.940666 177.386230 72.825912 -168.461578 -12.803459 -26.511080 4.247617 
-0.050290 28.895859 -16.930408 -0.400732 -2.363222 0.051767 -1.088507 19.606108 -7.564398 -4.896366 -12.747810 -7.840755 8.837892 -0.000004 29.794916 -0.019768 8.876954 -11.432497 0.547604 -0.048690 7.236025 -62.173996 19.714209 2.852891 13.584486 4.371141 -67.366028 48.897339 26.880161 -33.432934 10.417100 -8.290005 -0.155290 62.834747 15.395731 16.679522 6.294910 28.337908 55.087185 -34.371006 45.583858 20.854950 10.337130 -77.940628 8.310003 162.205780 74.059685 -172.439682 -2.865490 -24.793060 2.805092 0.736609 -73.024246 -11.920852 -169.866623 71.016151 178.678909 -16.923014 -29.858898 4.047764 
-0.044713 28.876047 -16.880781 -0.401390 -4.042881 -0.067363 -0.895308 16.287180 -14.143422 -1.972387 -11.380150 -4.334646 8.955077 -0.000004 29.941414 -0.197654 8.828074 -9.920871 -1.445915 -0.246997 16.957418 -64.625725 23.561419 10.471460 34.456120 18.618017 -77.989609 44.899635 16.823523 -23.570070 9.910596 -8.439658 6.495970 64.522118 13.428597 12.304337 8.439106 45.965561 50.751179 -44.400448 33.795639 20.664009 19.601173 -76.887527 17.612965 153.185059 79.658600 -162.959946 -4.040427 -17.604685 0.224064 14.842354 -74.770523 -2.942720 -148.569321 75.621368 157.693115 -15.500736 -19.451591 2.042857 
-0.037741 28.856689 -16.830484 -0.401957 -5.058494 -0.181926 -0.555350 14.725903 -16.811977 -0.387614 -10.702882 -2.464554 8.994141 -0.000001 30.000000 -0.276643 8.730368 -9.225636 -2.372119 -0.585246 21.426386 -66.058350 25.242882 13.844635 45.936134 23.051989 -85.985001 43.450771 10.809931 -19.249063 9.204992 -8.571834 12.681951 65.262230 11.587687 -7.248107 7.019705 49.104252 52.236603 -63.498600 20.851570 33.978794 26.212513 -75.392365 23.901361 123.724846 84.904793 -133.624954 -4.947428 -11.060472 -1.298085 25.207293 -75.142235 4.847905 -118.663223 79.267799 128.526886 -13.931437 -10.253883 1.380933 
-0.037741 28.856689 -16.830484 -0.401957 -5.058494 -0.181926 -0.555350 14.725903 -16.811977 -0.387614 -10.702882 -2.464554 8.994141 -0.000001 30.000000 -0.276643 8.730368 -9.225636 -2.372119 -0.585246 21.426386 -66.058350 25.242882 13.844635 45.936134 23.051989 -85.985001 43.450771 10.809931 -19.249063 9.204992 -8.571834 12.681951 65.262230 11.587687 -7.248107 7.019705 49.104252 52.236603 -63.498600 20.851570 33.978794 26.212513 -75.392365 23.901361 123.422363 84.920700 -133.368683 -4.954696 -11.066837 -1.269967 25.207293 -75.142235 4.847905 -118.663223 79.267799 128.526886 -13.931437 -10.253883 1.380933 
-0.037741 28.856689 -16.830484 -0.401957 -5.058494 -0.181926 -0.555350 14.725903 -16.811977 -0.387614 -10.702882 -2.464554 8.994141 -0.000001 30.000000 -0.276643 8.730368 -9.225636 -2.372119 -0.585246 21.426386 -66.058350 25.242882 13.844635 45.936134 23.051989 -85.985001 43.450771 10.809931 -19.249063 9.204992 -8.571834 12.681951 65.262230 11.587687 -7.248107 7.019705 49.104252 52.236603 -63.498600 20.851570 33.978794 26.212513 -75.392365 23.901361 123.453094 84.907188 -133.390167 -4.936881 -11.072050 -1.253284 25.207293 -75.142235 4.847905 -118.663223 79.267799 128.526886 -13.931437 -10.253883 1.380933 
-0.037741 28.856689 -16.830484 -0.401957 -5.058494 -0.181926 -0.555350 14.725903 -16.811977 -0.387614 -10.702882 -2.464554 8.994141 -0.000001 30.000000 -0.276643 8.730368 -9.225636 -2.372119 -0.585246 21.426386 -66.058350 25.242882 13.844635 45.936134 23.051989 -85.985001 43.450771 10.809931 -19.249063 9.204992 -8.571834 12.681951 65.262230 11.587687 -7.248107 7.019705 49.104252 52.236603 -63.498600 20.851570 33.978794 26.111227 -75.338310 23.813728 122.916275 84.927147 -132.899734 -4.851865 -11.105299 -1.178101 25.207293 -75.142235 4.847905 -118.663223 79.267799 128.526886 -13.931437 -10.253883 1.380933 
-0.037741 28.856689 -16.830484 -0.401957 -5.058494 -0.181926 -0.555350 14.725903 -16.811977 -0.387614 -10.702882 -2.464554 8.994141 -0.000001 30.000000 -0.276643 8.730368 -9.225636 -2.372119 -0.585246 21.426386 -66.058350 25.242882 13.844635 45.936134 23.051989 -85.985001 43.450771 10.809931 -19.249063 9.204992 -8.571834 12.681951 65.262230 11.587687 -7.248107 7.019705 49.104252 52.236603 -63.498600 20.851570 33.978794 26.111227 -75.338310 23.813728 122.850746 84.919434 -132.843628 -4.934303 -11.069060 -1.181742 25.207293 -75.142235 4.847905 -118.663223 79.267799 128.526886 -13.931437 -10.253883 1.380933 
